<?xml version="1.0" encoding="UTF-8"?>
<svg id="mermaid-10" width="100%" xmlns="http://www.w3.org/2000/svg" xmlns:xlink="http://www.w3.org/1999/xlink" class="classDiagram" style="max-width: 1074.7265625px;" viewBox="0 0 1074.7265625 415" role="graphics-document document" aria-roledescription="classDiagram"><style>#mermaid-10{font-family:"trebuchet ms",verdana,arial,sans-serif;font-size:16px;fill:#333;}@keyframes edge-animation-frame{from{stroke-dashoffset:0;}}@keyframes dash{to{stroke-dashoffset:0;}}#mermaid-10 .edge-animation-slow{stroke-dasharray:9,5!important;stroke-dashoffset:900;animation:dash 50s linear infinite;stroke-linecap:round;}#mermaid-10 .edge-animation-fast{stroke-dasharray:9,5!important;stroke-dashoffset:900;animation:dash 20s linear infinite;stroke-linecap:round;}#mermaid-10 .error-icon{fill:#552222;}#mermaid-10 .error-text{fill:#552222;stroke:#552222;}#mermaid-10 .edge-thickness-normal{stroke-width:1px;}#mermaid-10 .edge-thickness-thick{stroke-width:3.5px;}#mermaid-10 .edge-pattern-solid{stroke-dasharray:0;}#mermaid-10 .edge-thickness-invisible{stroke-width:0;fill:none;}#mermaid-10 .edge-pattern-dashed{stroke-dasharray:3;}#mermaid-10 .edge-pattern-dotted{stroke-dasharray:2;}#mermaid-10 .marker{fill:#333333;stroke:#333333;}#mermaid-10 .marker.cross{stroke:#333333;}#mermaid-10 svg{font-family:"trebuchet ms",verdana,arial,sans-serif;font-size:16px;}#mermaid-10 p{margin:0;}#mermaid-10 g.classGroup text{fill:#9370DB;stroke:none;font-family:"trebuchet ms",verdana,arial,sans-serif;font-size:10px;}#mermaid-10 g.classGroup text .title{font-weight:bolder;}#mermaid-10 .cluster-label text{fill:#333;}#mermaid-10 .cluster-label span{color:#333;}#mermaid-10 .cluster-label span p{background-color:transparent;}#mermaid-10 .cluster rect{fill:#ffffde;stroke:#aaaa33;stroke-width:1px;}#mermaid-10 .cluster text{fill:#333;}#mermaid-10 .cluster span{color:#333;}#mermaid-10 .nodeLabel,#mermaid-10 .edgeLabel{color:#131300;}#mermaid-10 .noteLabel .nodeLabel,#mermaid-10 .noteLabel .edgeLabel{color:black;}#mermaid-10 .edgeLabel .label rect{fill:#ECECFF;}#mermaid-10 .label text{fill:#131300;}#mermaid-10 .labelBkg{background:#ECECFF;}#mermaid-10 .edgeLabel .label span{background:#ECECFF;}#mermaid-10 .classTitle{font-weight:bolder;}#mermaid-10 .node rect,#mermaid-10 .node circle,#mermaid-10 .node ellipse,#mermaid-10 .node polygon,#mermaid-10 .node path{fill:#ECECFF;stroke:#9370DB;stroke-width:1;}#mermaid-10 .divider{stroke:#9370DB;stroke-width:1;}#mermaid-10 g.clickable{cursor:pointer;}#mermaid-10 g.classGroup rect{fill:#ECECFF;stroke:#9370DB;}#mermaid-10 g.classGroup line{stroke:#9370DB;stroke-width:1;}#mermaid-10 .classLabel .box{stroke:none;stroke-width:0;fill:#ECECFF;opacity:0.5;}#mermaid-10 .classLabel .label{fill:#9370DB;font-size:10px;}#mermaid-10 .relation{stroke:#333333;stroke-width:1;fill:none;}#mermaid-10 .dashed-line{stroke-dasharray:3;}#mermaid-10 .dotted-line{stroke-dasharray:1 2;}#mermaid-10 [id$="-compositionStart"],#mermaid-10 .composition{fill:#333333!important;stroke:#333333!important;stroke-width:1;}#mermaid-10 [id$="-compositionEnd"],#mermaid-10 .composition{fill:#333333!important;stroke:#333333!important;stroke-width:1;}#mermaid-10 [id$="-dependencyStart"],#mermaid-10 .dependency{fill:#333333!important;stroke:#333333!important;stroke-width:1;}#mermaid-10 [id$="-dependencyEnd"],#mermaid-10 .dependency{fill:#333333!important;stroke:#333333!important;stroke-width:1;}#mermaid-10 [id$="-extensionStart"],#mermaid-10 .extension{fill:transparent!important;stroke:#333333!important;stroke-width:1;}#mermaid-10 [id$="-extensionEnd"],#mermaid-10 .extension{fill:transparent!important;stroke:#333333!important;stroke-width:1;}#mermaid-10 [id$="-aggregationStart"],#mermaid-10 .aggregation{fill:transparent!important;stroke:#333333!important;stroke-width:1;}#mermaid-10 [id$="-aggregationEnd"],#mermaid-10 .aggregation{fill:transparent!important;stroke:#333333!important;stroke-width:1;}#mermaid-10 [id$="-lollipopStart"],#mermaid-10 .lollipop{fill:#ECECFF!important;stroke:#333333!important;stroke-width:1;}#mermaid-10 [id$="-lollipopEnd"],#mermaid-10 .lollipop{fill:#ECECFF!important;stroke:#333333!important;stroke-width:1;}#mermaid-10 .edgeTerminals{font-size:11px;line-height:initial;}#mermaid-10 .classTitleText{text-anchor:middle;font-size:18px;fill:#333;}#mermaid-10 .edgeLabel[data-look="neo"]{background-color:rgba(232,232,232, 0.8);text-align:center;}#mermaid-10 .edgeLabel[data-look="neo"] p{background-color:rgba(232,232,232, 0.8);}#mermaid-10 .edgeLabel[data-look="neo"] rect{opacity:0.5;background-color:rgba(232,232,232, 0.8);fill:rgba(232,232,232, 0.8);}#mermaid-10 .label-icon{display:inline-block;height:1em;overflow:visible;vertical-align:-0.125em;}#mermaid-10 .node .label-icon path{fill:currentColor;stroke:revert;stroke-width:revert;}#mermaid-10 .node .neo-node{stroke:#9370DB;}#mermaid-10 [data-look="neo"].node rect,#mermaid-10 [data-look="neo"].cluster rect,#mermaid-10 [data-look="neo"].node polygon{stroke:#9370DB;filter:drop-shadow(1px 2px 2px rgba(185, 185, 185, 1));}#mermaid-10 [data-look="neo"].swimlane.cluster rect{filter:none;}#mermaid-10 [data-look="neo"].node path{stroke:#9370DB;stroke-width:1px;}#mermaid-10 [data-look="neo"].node .outer-path{filter:drop-shadow(1px 2px 2px rgba(185, 185, 185, 1));}#mermaid-10 [data-look="neo"].node .neo-line path{stroke:#9370DB;filter:none;}#mermaid-10 [data-look="neo"].node circle{stroke:#9370DB;filter:drop-shadow(1px 2px 2px rgba(185, 185, 185, 1));}#mermaid-10 [data-look="neo"].node circle .state-start{fill:#000000;}#mermaid-10 [data-look="neo"].icon-shape .icon{fill:#9370DB;filter:drop-shadow(1px 2px 2px rgba(185, 185, 185, 1));}#mermaid-10 [data-look="neo"].icon-shape .icon-neo path{stroke:#9370DB;filter:drop-shadow(1px 2px 2px rgba(185, 185, 185, 1));}#mermaid-10 :root{--mermaid-font-family:"trebuchet ms",verdana,arial,sans-serif;}</style><g><defs><marker id="mermaid-10_classDiagram-aggregationStart" class="marker aggregation classDiagram" refX="18" refY="7" markerWidth="190" markerHeight="240" orient="auto" markerUnits="userSpaceOnUse"><path d="M 18,7 L9,13 L1,7 L9,1 Z"/></marker></defs><defs><marker id="mermaid-10_classDiagram-aggregationEnd" class="marker aggregation classDiagram" refX="1" refY="7" markerWidth="20" markerHeight="28" orient="auto" markerUnits="userSpaceOnUse"><path d="M 18,7 L9,13 L1,7 L9,1 Z"/></marker></defs><defs><marker id="mermaid-10_classDiagram-aggregationStart-margin" class="marker aggregation classDiagram" refX="15" refY="7" markerWidth="190" markerHeight="240" orient="auto" markerUnits="userSpaceOnUse"><path d="M 18,7 L9,13 L1,7 L9,1 Z" style="stroke-width: 2;"/></marker></defs><defs><marker id="mermaid-10_classDiagram-aggregationEnd-margin" class="marker aggregation classDiagram" refX="1" refY="7" markerWidth="20" markerHeight="28" orient="auto" markerUnits="userSpaceOnUse"><path d="M 18,7 L9,13 L1,7 L9,1 Z" style="stroke-width: 2;"/></marker></defs><defs><marker id="mermaid-10_classDiagram-extensionStart" class="marker extension classDiagram" refX="18" refY="7" markerWidth="20" markerHeight="28" orient="auto" markerUnits="userSpaceOnUse"><path d="M 1,7 L18,13 V 1 Z"/></marker></defs><defs><marker id="mermaid-10_classDiagram-extensionEnd" class="marker extension classDiagram" refX="1" refY="7" markerWidth="20" markerHeight="28" orient="auto" markerUnits="userSpaceOnUse"><path d="M 1,1 V 13 L18,7 Z"/></marker></defs><marker id="mermaid-10_classDiagram-extensionStart-margin" class="marker extension classDiagram" refX="18" refY="7" markerWidth="20" markerHeight="28" orient="auto" markerUnits="userSpaceOnUse" viewBox="0 0 20 14"><polygon points="10,7 18,13 18,1" style="stroke-width: 2; stroke-dasharray: 0;"/></marker><defs><marker id="mermaid-10_classDiagram-extensionEnd-margin" class="marker extension classDiagram" refX="9" refY="7" markerWidth="20" markerHeight="28" orient="auto" markerUnits="userSpaceOnUse" viewBox="0 0 20 14"><polygon points="10,1 10,13 18,7" style="stroke-width: 2; stroke-dasharray: 0;"/></marker></defs><defs><marker id="mermaid-10_classDiagram-compositionStart" class="marker composition classDiagram" refX="18" refY="7" markerWidth="190" markerHeight="240" orient="auto" markerUnits="userSpaceOnUse"><path d="M 18,7 L9,13 L1,7 L9,1 Z"/></marker></defs><defs><marker id="mermaid-10_classDiagram-compositionEnd" class="marker composition classDiagram" refX="1" refY="7" markerWidth="20" markerHeight="28" orient="auto" markerUnits="userSpaceOnUse"><path d="M 18,7 L9,13 L1,7 L9,1 Z"/></marker></defs><defs><marker id="mermaid-10_classDiagram-compositionStart-margin" class="marker composition classDiagram" refX="15" refY="7" markerWidth="190" markerHeight="240" orient="auto" markerUnits="userSpaceOnUse"><path viewBox="0 0 15 15" d="M 18,7 L9,13 L1,7 L9,1 Z" style="stroke-width: 0;"/></marker></defs><defs><marker id="mermaid-10_classDiagram-compositionEnd-margin" class="marker composition classDiagram" refX="3.5" refY="7" markerWidth="20" markerHeight="28" orient="auto" markerUnits="userSpaceOnUse"><path d="M 18,7 L9,13 L1,7 L9,1 Z" style="stroke-width: 0;"/></marker></defs><defs><marker id="mermaid-10_classDiagram-dependencyStart" class="marker dependency classDiagram" refX="6" refY="7" markerWidth="190" markerHeight="240" orient="auto" markerUnits="userSpaceOnUse"><path d="M 5,7 L9,13 L1,7 L9,1 Z"/></marker></defs><defs><marker id="mermaid-10_classDiagram-dependencyEnd" class="marker dependency classDiagram" refX="13" refY="7" markerWidth="20" markerHeight="28" orient="auto" markerUnits="userSpaceOnUse"><path d="M 18,7 L9,13 L14,7 L9,1 Z"/></marker></defs><defs><marker id="mermaid-10_classDiagram-dependencyStart-margin" class="marker dependency classDiagram" refX="4" refY="7" markerWidth="190" markerHeight="240" orient="auto" markerUnits="userSpaceOnUse"><path d="M 5,7 L9,13 L1,7 L9,1 Z" style="stroke-width: 0;"/></marker></defs><defs><marker id="mermaid-10_classDiagram-dependencyEnd-margin" class="marker dependency classDiagram" refX="16" refY="7" markerWidth="20" markerHeight="28" orient="auto" markerUnits="userSpaceOnUse"><path d="M 18,7 L9,13 L14,7 L9,1 Z" style="stroke-width: 0;"/></marker></defs><defs><marker id="mermaid-10_classDiagram-lollipopStart" class="marker lollipop classDiagram" refX="13" refY="7" markerWidth="190" markerHeight="240" orient="auto" markerUnits="userSpaceOnUse"><circle fill="transparent" cx="7" cy="7" r="6"/></marker></defs><defs><marker id="mermaid-10_classDiagram-lollipopEnd" class="marker lollipop classDiagram" refX="1" refY="7" markerWidth="190" markerHeight="240" orient="auto" markerUnits="userSpaceOnUse"><circle fill="transparent" cx="7" cy="7" r="6"/></marker></defs><defs><marker id="mermaid-10_classDiagram-lollipopStart-margin" class="marker lollipop classDiagram" refX="13" refY="7" markerWidth="190" markerHeight="240" orient="auto" markerUnits="userSpaceOnUse"><circle fill="transparent" cx="7" cy="7" r="6" stroke-width="2"/></marker></defs><defs><marker id="mermaid-10_classDiagram-lollipopEnd-margin" class="marker lollipop classDiagram" refX="1" refY="7" markerWidth="190" markerHeight="240" orient="auto" markerUnits="userSpaceOnUse"><circle fill="transparent" cx="7" cy="7" r="6" stroke-width="2"/></marker></defs><g class="root"><g class="clusters"/><g class="edgePaths"><path d="M542.625,172.035L476.411,193.862C410.197,215.69,277.768,259.345,206.684,285.339C135.599,311.333,125.858,319.667,120.988,323.833L116.117,328" id="mermaid-10-id_Bundle_ArraysBundle_1" class=" edge-thickness-normal edge-pattern-solid relation" style=";;;" data-edge="true" data-et="edge" data-id="id_Bundle_ArraysBundle_1" data-points="W3sieCI6NTU5LjAwNzgxMjUsInkiOjE2Ni42MzQzNTg5Mjg5NTk0N30seyJ4IjoxNDUuMzM5ODQzNzUsInkiOjMwM30seyJ4IjoxMTYuMTE3MTU3MjE4OTkyMjUsInkiOjMyOH1d" data-look="classic" marker-start="url(#mermaid-10_classDiagram-extensionStart)"/><path d="M543.643,187.425L505.894,206.688C468.145,225.95,392.647,264.475,349.961,287.904C307.276,311.333,297.403,319.667,292.467,323.833L287.531,328" id="mermaid-10-id_Bundle_BatchBundle_2" class=" edge-thickness-normal edge-pattern-solid relation" style=";;;" data-edge="true" data-et="edge" data-id="id_Bundle_BatchBundle_2" data-points="W3sieCI6NTU5LjAwNzgxMjUsInkiOjE3OS41ODQ1MjcyMjA2MzAzOH0seyJ4IjozMTcuMTQ4NDM3NSwieSI6MzAzfSx7IngiOjI4Ny41MzA1ODM4MTc4Mjk0NCwieSI6MzI4fV0=" data-look="classic" marker-start="url(#mermaid-10_classDiagram-extensionStart)"/><path d="M710.163,293.249L711.023,294.874C711.882,296.499,713.601,299.75,714.461,305.541C715.32,311.333,715.32,319.667,715.32,323.833L715.32,328" id="mermaid-10-id_Bundle_EpisodeTable_3" class=" edge-thickness-normal edge-pattern-solid relation" style=";;;" data-edge="true" data-et="edge" data-id="id_Bundle_EpisodeTable_3" data-points="W3sieCI6NzAyLjA5ODg3Njk1MzEyNSwieSI6Mjc4fSx7IngiOjcxNS4zMjAzMTI1LCJ5IjozMDN9LHsieCI6NzE1LjMyMDMxMjUsInkiOjMyOH1d" data-look="classic" marker-start="url(#mermaid-10_classDiagram-extensionStart)"/><path d="M547.173,231.58L535.948,243.483C524.724,255.386,502.274,279.193,486.769,295.263C471.263,311.333,462.702,319.667,458.422,323.833L454.141,328" id="mermaid-10-id_Bundle_RecordBundle_4" class=" edge-thickness-normal edge-pattern-solid relation" style=";;;" data-edge="true" data-et="edge" data-id="id_Bundle_RecordBundle_4" data-points="W3sieCI6NTU5LjAwNzgxMjUsInkiOjIxOS4wMjk1MTQ1NjMxMDY4fSx7IngiOjQ3OS44MjQyMTg3NSwieSI6MzAzfSx7IngiOjQ1NC4xNDEzODIwMjUxOTM4LCJ5IjozMjh9XQ==" data-look="classic" marker-start="url(#mermaid-10_classDiagram-extensionStart)"/><path d="M630.703,295.25L630.703,296.542C630.703,297.833,630.703,300.417,626.357,306.047C622.01,311.677,613.318,320.354,608.971,324.692L604.625,329.031" id="mermaid-10-id_Bundle_Stream_5" class=" edge-thickness-normal edge-pattern-solid relation" style=";;;" data-edge="true" data-et="edge" data-id="id_Bundle_Stream_5" data-points="W3sieCI6NjMwLjcwMzEyNSwieSI6Mjc4fSx7IngiOjYzMC43MDMxMjUsInkiOjMwM30seyJ4Ijo2MDQuNjI1LCJ5IjozMjkuMDMwODMwNjEyOTg1MTR9XQ==" data-look="classic" marker-start="url(#mermaid-10_classDiagram-extensionStart)"/><path d="M716.789,199.902L742.784,217.085C768.78,234.268,820.771,268.634,846.766,289.984C872.762,311.333,872.762,319.667,872.762,323.833L872.762,328" id="mermaid-10-id_Bundle_Summary_6" class=" edge-thickness-normal edge-pattern-solid relation" style=";;;" data-edge="true" data-et="edge" data-id="id_Bundle_Summary_6" data-points="W3sieCI6NzAyLjM5ODQzNzUsInkiOjE5MC4zOTAzODUyMDUwMjg0OH0seyJ4Ijo4NzIuNzYxNzE4NzUsInkiOjMwM30seyJ4Ijo4NzIuNzYxNzE4NzUsInkiOjMyOH1d" data-look="classic" marker-start="url(#mermaid-10_classDiagram-extensionStart)"/><path d="M718.342,179.194L768.305,199.829C818.267,220.463,918.192,261.731,968.155,286.532C1018.117,311.333,1018.117,319.667,1018.117,323.833L1018.117,328" id="mermaid-10-id_Bundle_TrueState_7" class=" edge-thickness-normal edge-pattern-solid relation" style=";;;" data-edge="true" data-et="edge" data-id="id_Bundle_TrueState_7" data-points="W3sieCI6NzAyLjM5ODQzNzUsInkiOjE3Mi42MDk3OTI0OTQzMDMxOH0seyJ4IjoxMDE4LjExNzE4NzUsInkiOjMwM30seyJ4IjoxMDE4LjExNzE4NzUsInkiOjMyOH1d" data-look="classic" marker-start="url(#mermaid-10_classDiagram-extensionStart)"/><path d="M148.853,228.44L134.035,240.867C119.217,253.293,89.581,278.147,75.409,294.74C61.237,311.333,62.529,319.667,63.175,323.833L63.821,328" id="mermaid-10-id_FieldGroups_ArraysBundle_8" class=" edge-thickness-normal edge-pattern-solid relation" style=";;;" data-edge="true" data-et="edge" data-id="id_FieldGroups_ArraysBundle_8" data-points="W3sieCI6MTYyLjA3MDMxMjUsInkiOjIxNy4zNTU2Nzc0OTA2ODQyM30seyJ4Ijo1OS45NDUzMTI1LCJ5IjozMDN9LHsieCI6NjMuODIxMjgxNDkyMjQ4MDYsInkiOjMyOH1d" data-look="classic" marker-start="url(#mermaid-10_classDiagram-extensionStart)"/><path d="M172.962,288.718L171.692,291.098C170.421,293.479,167.881,298.239,171.481,304.786C175.081,311.333,184.822,319.667,189.692,323.833L194.563,328" id="mermaid-10-id_FieldGroups_BatchBundle_9" class=" edge-thickness-normal edge-pattern-solid relation" style=";;;" data-edge="true" data-et="edge" data-id="id_FieldGroups_BatchBundle_9" data-points="W3sieCI6MTgxLjA4NDQ2MDQ0OTIxODc0LCJ5IjoyNzMuNX0seyJ4IjoxNjUuMzM5ODQzNzUsInkiOjMwM30seyJ4IjoxOTQuNTYyNTMwMjgxMDA3NzUsInkiOjMyOH1d" data-look="classic" marker-start="url(#mermaid-10_classDiagram-extensionStart)"/><path d="M329.413,288.678L330.702,291.065C331.992,293.452,334.57,298.226,340.796,304.78C347.021,311.333,356.894,319.667,361.83,323.833L366.766,328" id="mermaid-10-id_FieldGroups_RecordBundle_10" class=" edge-thickness-normal edge-pattern-solid relation" style=";;;" data-edge="true" data-et="edge" data-id="id_FieldGroups_RecordBundle_10" data-points="W3sieCI6MzIxLjIxNTg0NDcyNjU2MjUsInkiOjI3My41fSx7IngiOjMzNy4xNDg0Mzc1LCJ5IjozMDN9LHsieCI6MzY2Ljc2NjI5MTE4MjE3MDU2LCJ5IjozMjh9XQ==" data-look="classic" marker-start="url(#mermaid-10_classDiagram-extensionStart)"/><path d="M353.912,209.275L378.231,224.896C402.55,240.517,451.187,271.758,480.126,291.877C509.065,311.995,518.306,320.99,522.926,325.488L527.547,329.986" id="mermaid-10-id_FieldGroups_Stream_11" class=" edge-thickness-normal edge-pattern-solid relation" style=";;;" data-edge="true" data-et="edge" data-id="id_FieldGroups_Stream_11" data-points="W3sieCI6MzM5LjM5ODQzNzUsInkiOjE5OS45NTIzNDIxMjA1MzI1Nn0seyJ4Ijo0OTkuODI0MjE4NzUsInkiOjMwM30seyJ4Ijo1MjcuNTQ2ODc1LCJ5IjozMjkuOTg1NTg2Mjc2MDEyNX1d" data-look="classic" marker-start="url(#mermaid-10_classDiagram-extensionStart)"/></g><g class="edgeLabels"><g class="edgeLabel"><g class="label" data-id="id_Bundle_ArraysBundle_1" transform="translate(0, 0)"><text y="-10.1" text-anchor="middle"><tspan class="text-outer-tspan row" x="0" y="-0.1em" dy="1.1em" text-anchor="middle"/></text></g></g><g><rect class="background" style="stroke: none"/></g><g class="edgeLabel"><g class="label" data-id="id_Bundle_BatchBundle_2" transform="translate(0, 0)"><text y="-10.1" text-anchor="middle"><tspan class="text-outer-tspan row" x="0" y="-0.1em" dy="1.1em" text-anchor="middle"/></text></g></g><g><rect class="background" style="stroke: none"/></g><g class="edgeLabel"><g class="label" data-id="id_Bundle_EpisodeTable_3" transform="translate(0, 0)"><text y="-10.1" text-anchor="middle"><tspan class="text-outer-tspan row" x="0" y="-0.1em" dy="1.1em" text-anchor="middle"/></text></g></g><g><rect class="background" style="stroke: none"/></g><g class="edgeLabel"><g class="label" data-id="id_Bundle_RecordBundle_4" transform="translate(0, 0)"><text y="-10.1" text-anchor="middle"><tspan class="text-outer-tspan row" x="0" y="-0.1em" dy="1.1em" text-anchor="middle"/></text></g></g><g><rect class="background" style="stroke: none"/></g><g class="edgeLabel"><g class="label" data-id="id_Bundle_Stream_5" transform="translate(0, 0)"><text y="-10.1" text-anchor="middle"><tspan class="text-outer-tspan row" x="0" y="-0.1em" dy="1.1em" text-anchor="middle"/></text></g></g><g><rect class="background" style="stroke: none"/></g><g class="edgeLabel"><g class="label" data-id="id_Bundle_Summary_6" transform="translate(0, 0)"><text y="-10.1" text-anchor="middle"><tspan class="text-outer-tspan row" x="0" y="-0.1em" dy="1.1em" text-anchor="middle"/></text></g></g><g><rect class="background" style="stroke: none"/></g><g class="edgeLabel"><g class="label" data-id="id_Bundle_TrueState_7" transform="translate(0, 0)"><text y="-10.1" text-anchor="middle"><tspan class="text-outer-tspan row" x="0" y="-0.1em" dy="1.1em" text-anchor="middle"/></text></g></g><g><rect class="background" style="stroke: none"/></g><g class="edgeLabel"><g class="label" data-id="id_FieldGroups_ArraysBundle_8" transform="translate(0, 0)"><text y="-10.1" text-anchor="middle"><tspan class="text-outer-tspan row" x="0" y="-0.1em" dy="1.1em" text-anchor="middle"/></text></g></g><g><rect class="background" style="stroke: none"/></g><g class="edgeLabel"><g class="label" data-id="id_FieldGroups_BatchBundle_9" transform="translate(0, 0)"><text y="-10.1" text-anchor="middle"><tspan class="text-outer-tspan row" x="0" y="-0.1em" dy="1.1em" text-anchor="middle"/></text></g></g><g><rect class="background" style="stroke: none"/></g><g class="edgeLabel"><g class="label" data-id="id_FieldGroups_RecordBundle_10" transform="translate(0, 0)"><text y="-10.1" text-anchor="middle"><tspan class="text-outer-tspan row" x="0" y="-0.1em" dy="1.1em" text-anchor="middle"/></text></g></g><g><rect class="background" style="stroke: none"/></g><g class="edgeLabel"><g class="label" data-id="id_FieldGroups_Stream_11" transform="translate(0, 0)"><text y="-10.1" text-anchor="middle"><tspan class="text-outer-tspan row" x="0" y="-0.1em" dy="1.1em" text-anchor="middle"/></text></g></g><g><rect class="background" style="stroke: none"/></g></g><g class="nodes"><g class="node default " id="mermaid-10-classId-FieldGroups-0" data-look="classic" transform="translate(250.734375, 143)"><g class="basic label-container outer-path"><path d="M-88.6640625 -130.5 L88.6640625 -130.5 L88.6640625 130.5 L-88.6640625 130.5" stroke="none" stroke-width="0" fill="#ECECFF" style=""/><path d="M-88.6640625 -130.5 C-49.59108960595158 -130.5, -10.518116711903161 -130.5, 88.6640625 -130.5 M-88.6640625 -130.5 C-22.214921458874045 -130.5, 44.23421958225191 -130.5, 88.6640625 -130.5 M88.6640625 -130.5 C88.6640625 -48.62095244493075, 88.6640625 33.2580951101385, 88.6640625 130.5 M88.6640625 -130.5 C88.6640625 -55.1963738589195, 88.6640625 20.107252282161, 88.6640625 130.5 M88.6640625 130.5 C43.0732378149531 130.5, -2.517586870093794 130.5, -88.6640625 130.5 M88.6640625 130.5 C44.882501192805115 130.5, 1.1009398856102308 130.5, -88.6640625 130.5 M-88.6640625 130.5 C-88.6640625 28.386246566752035, -88.6640625 -73.72750686649593, -88.6640625 -130.5 M-88.6640625 130.5 C-88.6640625 66.07792611197581, -88.6640625 1.6558522239516265, -88.6640625 -130.5" stroke="#9370DB" stroke-width="1.3" fill="none" stroke-dasharray="0 0" style=""/></g><g class="annotation-group text" transform="translate(-37.8203125, -110.5)"><g class="label" style="" transform="translate(0,-9.5)"><g><rect class="background" style="stroke: none"/><text y="-10.1" style=""><tspan class="text-outer-tspan row" x="0" y="-0.1em" dy="1.1em"><tspan font-style="normal" class="text-inner-tspan" font-weight="normal">«7</tspan><tspan font-style="normal" class="text-inner-tspan" font-weight="normal"> mixins»</tspan></tspan></text></g></g></g><g class="label-group text" transform="translate(-44.859375, -91.5)"><g class="label" style="font-weight: bolder" transform="translate(0,-9.5)"><g><rect class="background" style="stroke: none"/><text y="-10.1" style=""><tspan class="text-outer-tspan row" x="0" y="-0.1em" dy="1.1em" font-weight=""><tspan font-style="normal" class="text-inner-tspan" font-weight="">FieldGroups</tspan></tspan></text></g></g></g><g class="members-group text" transform="translate(-76.6640625, -48.5)"><g class="label" style="" transform="translate(0,-9.5)"><g><rect class="background" style="stroke: none"/><text y="-10.1" style=""><tspan class="text-outer-tspan row" x="0" y="-0.1em" dy="1.1em"><tspan font-style="normal" class="text-inner-tspan" font-weight="normal">StreamLayers</tspan></tspan></text></g></g><g class="label" style="" transform="translate(0,12.5)"><g><rect class="background" style="stroke: none"/><text y="-10.1" style=""><tspan class="text-outer-tspan row" x="0" y="-0.1em" dy="1.1em"><tspan font-style="normal" class="text-inner-tspan" font-weight="normal">GraphFields</tspan></tspan></text></g></g><g class="label" style="" transform="translate(0,34.5)"><g><rect class="background" style="stroke: none"/><text y="-10.1" style=""><tspan class="text-outer-tspan row" x="0" y="-0.1em" dy="1.1em"><tspan font-style="normal" class="text-inner-tspan" font-weight="normal">CleanFields</tspan></tspan></text></g></g><g class="label" style="" transform="translate(0,56.5)"><g><rect class="background" style="stroke: none"/><text y="-10.1" style=""><tspan class="text-outer-tspan row" x="0" y="-0.1em" dy="1.1em"><tspan font-style="normal" class="text-inner-tspan" font-weight="normal">TemporalFields</tspan></tspan></text></g></g><g class="label" style="" transform="translate(0,78.5)"><g><rect class="background" style="stroke: none"/><text y="-10.1" style=""><tspan class="text-outer-tspan row" x="0" y="-0.1em" dy="1.1em"><tspan font-style="normal" class="text-inner-tspan" font-weight="normal">RecordIds</tspan></tspan></text></g></g><g class="label" style="" transform="translate(0,100.5)"><g><rect class="background" style="stroke: none"/><text y="-10.1" style=""><tspan class="text-outer-tspan row" x="0" y="-0.1em" dy="1.1em"><tspan font-style="normal" class="text-inner-tspan" font-weight="normal">LabelFields</tspan></tspan></text></g></g><g class="label" style="" transform="translate(0,122.5)"><g><rect class="background" style="stroke: none"/><text y="-10.1" style=""><tspan class="text-outer-tspan row" x="0" y="-0.1em" dy="1.1em"><tspan font-style="normal" class="text-inner-tspan" font-weight="normal">ScanFields</tspan></tspan></text></g></g></g><g class="methods-group text" transform="translate(-76.6640625, 126.5)"/><g class="divider" style=""><path d="M-88.6640625 -68.5 C-44.79312332865178 -68.49975260021967, -0.9221841573035618 -68.49950520043934, 88.6640625 -68.499 M-88.6640625 -68.5 C-33.92079110769537 -68.49969128827482, 20.822480284609256 -68.49938257654964, 88.6640625 -68.499" stroke="#9370DB" stroke-width="1.3" fill="none" stroke-dasharray="0 0" style=""/></g><g class="divider" style=""><path d="M-88.6640625 106.5 C-48.44505662114024 106.50022680556668, -8.226050742280478 106.50045361113337, 88.6640625 106.501 M-88.6640625 106.5 C-33.22795535688017 106.50031261880845, 22.208151786239654 106.50062523761692, 88.6640625 106.501" stroke="#9370DB" stroke-width="1.3" fill="none" stroke-dasharray="0 0" style=""/></g></g><g class="node default " id="mermaid-10-classId-Bundle-1" data-look="classic" transform="translate(630.703125, 143)"><g class="basic label-container outer-path"><path d="M-71.6953125 -135 L71.6953125 -135 L71.6953125 135 L-71.6953125 135" stroke="none" stroke-width="0" fill="#ECECFF" style=""/><path d="M-71.6953125 -135 C-20.956108389806232 -135, 29.783095720387536 -135, 71.6953125 -135 M-71.6953125 -135 C-16.504221995712065 -135, 38.68686850857587 -135, 71.6953125 -135 M71.6953125 -135 C71.6953125 -48.82496546136737, 71.6953125 37.35006907726526, 71.6953125 135 M71.6953125 -135 C71.6953125 -50.16822272425364, 71.6953125 34.66355455149272, 71.6953125 135 M71.6953125 135 C32.4537468708099 135, -6.787818758380197 135, -71.6953125 135 M71.6953125 135 C26.54149899766113 135, -18.61231450467774 135, -71.6953125 135 M-71.6953125 135 C-71.6953125 75.52484691904606, -71.6953125 16.04969383809211, -71.6953125 -135 M-71.6953125 135 C-71.6953125 49.60894052696433, -71.6953125 -35.782118946071336, -71.6953125 -135" stroke="#9370DB" stroke-width="1.3" fill="none" stroke-dasharray="0 0" style=""/></g><g class="annotation-group text" transform="translate(0, -115)"/><g class="label-group text" transform="translate(-25.8125, -115)"><g class="label" style="font-weight: bolder" transform="translate(0,-9.5)"><g><rect class="background" style="stroke: none"/><text y="-10.1" style=""><tspan class="text-outer-tspan row" x="0" y="-0.1em" dy="1.1em" font-weight=""><tspan font-style="normal" class="text-inner-tspan" font-weight="">Bundle</tspan></tspan></text></g></g></g><g class="members-group text" transform="translate(-59.6953125, -72)"/><g class="methods-group text" transform="translate(-59.6953125, -42)"><g class="label" style="" transform="translate(0,-9.5)"><g><rect class="background" style="stroke: none"/><text y="-10.1" style=""><tspan class="text-outer-tspan row" x="0" y="-0.1em" dy="1.1em"><tspan font-style="normal" class="text-inner-tspan" font-weight="normal">+key_of()</tspan></tspan></text></g></g><g class="label" style="" transform="translate(0,12.5)"><g><rect class="background" style="stroke: none"/><text y="-10.1" style=""><tspan class="text-outer-tspan row" x="0" y="-0.1em" dy="1.1em"><tspan font-style="normal" class="text-inner-tspan" font-weight="normal">+to_dict()</tspan></tspan></text></g></g><g class="label" style="" transform="translate(0,34.5)"><g><rect class="background" style="stroke: none"/><text y="-10.1" style=""><tspan class="text-outer-tspan row" x="0" y="-0.1em" dy="1.1em"><tspan font-style="normal" class="text-inner-tspan" font-weight="normal">+ordered()</tspan></tspan></text></g></g><g class="label" style="" transform="translate(0,56.5)"><g><rect class="background" style="stroke: none"/><text y="-10.1" style=""><tspan class="text-outer-tspan row" x="0" y="-0.1em" dy="1.1em"><tspan font-style="normal" class="text-inner-tspan" font-weight="normal">+update()</tspan></tspan></text></g></g><g class="label" style="" transform="translate(0,78.5)"><g><rect class="background" style="stroke: none"/><text y="-10.1" style=""><tspan class="text-outer-tspan row" x="0" y="-0.1em" dy="1.1em"><tspan font-style="normal" class="text-inner-tspan" font-weight="normal">+setdefault()</tspan></tspan></text></g></g><g class="label" style="" transform="translate(0,100.5)"><g><rect class="background" style="stroke: none"/><text y="-10.1" style=""><tspan class="text-outer-tspan row" x="0" y="-0.1em" dy="1.1em"><tspan font-style="normal" class="text-inner-tspan" font-weight="normal">+pop()</tspan></tspan></text></g></g><g class="label" style="" transform="translate(0,122.5)"><g><rect class="background" style="stroke: none"/><text y="-10.1" style=""><tspan class="text-outer-tspan row" x="0" y="-0.1em" dy="1.1em"><tspan font-style="normal" class="text-inner-tspan" font-weight="normal">+popitem()</tspan></tspan></text></g></g><g class="label" style="" transform="translate(0,144.5)"><g><rect class="background" style="stroke: none"/><text y="-10.1" style=""><tspan class="text-outer-tspan row" x="0" y="-0.1em" dy="1.1em"><tspan font-style="normal" class="text-inner-tspan" font-weight="normal">+clear()</tspan></tspan></text></g></g></g><g class="divider" style=""><path d="M-71.6953125 -92 C-41.875868431065825 -91.9997920404903, -12.056424362131658 -91.99958408098063, 71.6953125 -91.999 M-71.6953125 -92 C-20.760575134202433 -91.99964478335062, 30.174162231595133 -91.99928956670122, 71.6953125 -91.999" stroke="#9370DB" stroke-width="1.3" fill="none" stroke-dasharray="0 0" style=""/></g><g class="divider" style=""><path d="M-71.6953125 -68 C-32.66364107908133 -67.99972779481628, 6.36803034183734 -67.99945558963257, 71.6953125 -67.999 M-71.6953125 -68 C-22.879931052733944 -67.99965956364687, 25.93545039453211 -67.99931912729375, 71.6953125 -67.999" stroke="#9370DB" stroke-width="1.3" fill="none" stroke-dasharray="0 0" style=""/></g></g><g class="node default " id="mermaid-10-classId-RecordBundle-2" data-look="classic" transform="translate(413.5625, 367.5)"><g class="basic label-container outer-path"><path d="M-63.984375 -39.5 L63.984375 -39.5 L63.984375 39.5 L-63.984375 39.5" stroke="none" stroke-width="0" fill="#ECECFF" style=""/><path d="M-63.984375 -39.5 C-29.313114402696876 -39.5, 5.358146194606249 -39.5, 63.984375 -39.5 M-63.984375 -39.5 C-32.61497615009064 -39.5, -1.2455773001812744 -39.5, 63.984375 -39.5 M63.984375 -39.5 C63.984375 -18.55469527618151, 63.984375 2.390609447636983, 63.984375 39.5 M63.984375 -39.5 C63.984375 -9.300571145566977, 63.984375 20.898857708866046, 63.984375 39.5 M63.984375 39.5 C32.02096688099176 39.5, 0.05755876198351473 39.5, -63.984375 39.5 M63.984375 39.5 C29.04737177895595 39.5, -5.889631442088103 39.5, -63.984375 39.5 M-63.984375 39.5 C-63.984375 11.266074099000122, -63.984375 -16.967851801999757, -63.984375 -39.5 M-63.984375 39.5 C-63.984375 19.928262533040463, -63.984375 0.35652506608092693, -63.984375 -39.5" stroke="#9370DB" stroke-width="1.3" fill="none" stroke-dasharray="0 0" style=""/></g><g class="annotation-group text" transform="translate(0, -19.5)"/><g class="label-group text" transform="translate(-51.984375, -19.5)"><g class="label" style="font-weight: bolder" transform="translate(0,-9.5)"><g><rect class="background" style="stroke: none"/><text y="-10.1" style=""><tspan class="text-outer-tspan row" x="0" y="-0.1em" dy="1.1em" font-weight=""><tspan font-style="normal" class="text-inner-tspan" font-weight="">RecordBundle</tspan></tspan></text></g></g></g><g class="members-group text" transform="translate(-51.984375, 23.5)"/><g class="methods-group text" transform="translate(-51.984375, 53.5)"/><g class="divider" style=""><path d="M-63.984375 3.5 C-29.54445593662735 3.5002691275726563, 4.895463126745298 3.5005382551453126, 63.984375 3.501 M-63.984375 3.5 C-13.7356502777805 3.5003926640271334, 36.513074444439 3.5007853280542665, 63.984375 3.501" stroke="#9370DB" stroke-width="1.3" fill="none" stroke-dasharray="0 0" style=""/></g><g class="divider" style=""><path d="M-63.984375 21.5 C-18.592382180030057 21.500354711543405, 26.799610639939885 21.500709423086807, 63.984375 21.501 M-63.984375 21.5 C-26.369812861710678 21.50029393552831, 11.244749276578645 21.50058787105662, 63.984375 21.501" stroke="#9370DB" stroke-width="1.3" fill="none" stroke-dasharray="0 0" style=""/></g></g><g class="node default " id="mermaid-10-classId-BatchBundle-3" data-look="classic" transform="translate(240.734375, 367.5)"><g class="basic label-container outer-path"><path d="M-58.84375 -39.5 L58.84375 -39.5 L58.84375 39.5 L-58.84375 39.5" stroke="none" stroke-width="0" fill="#ECECFF" style=""/><path d="M-58.84375 -39.5 C-35.146846654517134 -39.5, -11.449943309034268 -39.5, 58.84375 -39.5 M-58.84375 -39.5 C-28.73689834278042 -39.5, 1.369953314439158 -39.5, 58.84375 -39.5 M58.84375 -39.5 C58.84375 -13.399127358035017, 58.84375 12.701745283929966, 58.84375 39.5 M58.84375 -39.5 C58.84375 -16.034567424224424, 58.84375 7.430865151551153, 58.84375 39.5 M58.84375 39.5 C13.119773460974145 39.5, -32.60420307805171 39.5, -58.84375 39.5 M58.84375 39.5 C31.083073377563764 39.5, 3.322396755127528 39.5, -58.84375 39.5 M-58.84375 39.5 C-58.84375 15.378073439043483, -58.84375 -8.743853121913034, -58.84375 -39.5 M-58.84375 39.5 C-58.84375 9.699087227943021, -58.84375 -20.101825544113957, -58.84375 -39.5" stroke="#9370DB" stroke-width="1.3" fill="none" stroke-dasharray="0 0" style=""/></g><g class="annotation-group text" transform="translate(0, -19.5)"/><g class="label-group text" transform="translate(-46.84375, -19.5)"><g class="label" style="font-weight: bolder" transform="translate(0,-9.5)"><g><rect class="background" style="stroke: none"/><text y="-10.1" style=""><tspan class="text-outer-tspan row" x="0" y="-0.1em" dy="1.1em" font-weight=""><tspan font-style="normal" class="text-inner-tspan" font-weight="">BatchBundle</tspan></tspan></text></g></g></g><g class="members-group text" transform="translate(-46.84375, 23.5)"/><g class="methods-group text" transform="translate(-46.84375, 53.5)"/><g class="divider" style=""><path d="M-58.84375 3.5 C-27.710440652324973 3.5002645421930763, 3.4228686953500542 3.5005290843861525, 58.84375 3.501 M-58.84375 3.5 C-26.134367548898453 3.500277934210949, 6.575014902203094 3.5005558684218987, 58.84375 3.501" stroke="#9370DB" stroke-width="1.3" fill="none" stroke-dasharray="0 0" style=""/></g><g class="divider" style=""><path d="M-58.84375 21.5 C-19.03348609198997 21.500338270962576, 20.776777816020058 21.50067654192515, 58.84375 21.501 M-58.84375 21.5 C-33.72729595647876 21.50021341649745, -8.610841912957525 21.500426832994897, 58.84375 21.501" stroke="#9370DB" stroke-width="1.3" fill="none" stroke-dasharray="0 0" style=""/></g></g><g class="node default " id="mermaid-10-classId-ArraysBundle-4" data-look="classic" transform="translate(69.9453125, 367.5)"><g class="basic label-container outer-path"><path d="M-61.9453125 -39.5 L61.9453125 -39.5 L61.9453125 39.5 L-61.9453125 39.5" stroke="none" stroke-width="0" fill="#ECECFF" style=""/><path d="M-61.9453125 -39.5 C-22.398856778459077 -39.5, 17.147598943081846 -39.5, 61.9453125 -39.5 M-61.9453125 -39.5 C-33.395183342005126 -39.5, -4.845054184010252 -39.5, 61.9453125 -39.5 M61.9453125 -39.5 C61.9453125 -11.603038098322827, 61.9453125 16.293923803354346, 61.9453125 39.5 M61.9453125 -39.5 C61.9453125 -19.66835741052188, 61.9453125 0.16328517895623662, 61.9453125 39.5 M61.9453125 39.5 C25.339781783666318 39.5, -11.265748932667364 39.5, -61.9453125 39.5 M61.9453125 39.5 C19.174661390359987 39.5, -23.595989719280027 39.5, -61.9453125 39.5 M-61.9453125 39.5 C-61.9453125 10.263595794905108, -61.9453125 -18.972808410189785, -61.9453125 -39.5 M-61.9453125 39.5 C-61.9453125 11.001736563781495, -61.9453125 -17.49652687243701, -61.9453125 -39.5" stroke="#9370DB" stroke-width="1.3" fill="none" stroke-dasharray="0 0" style=""/></g><g class="annotation-group text" transform="translate(0, -19.5)"/><g class="label-group text" transform="translate(-49.9453125, -19.5)"><g class="label" style="font-weight: bolder" transform="translate(0,-9.5)"><g><rect class="background" style="stroke: none"/><text y="-10.1" style=""><tspan class="text-outer-tspan row" x="0" y="-0.1em" dy="1.1em" font-weight=""><tspan font-style="normal" class="text-inner-tspan" font-weight="">ArraysBundle</tspan></tspan></text></g></g></g><g class="members-group text" transform="translate(-49.9453125, 23.5)"/><g class="methods-group text" transform="translate(-49.9453125, 53.5)"/><g class="divider" style=""><path d="M-61.9453125 3.5 C-20.079702968376473 3.500337923951321, 21.785906563247053 3.5006758479026416, 61.9453125 3.501 M-61.9453125 3.5 C-18.372739366130368 3.5003517019397865, 25.199833767739264 3.500703403879573, 61.9453125 3.501" stroke="#9370DB" stroke-width="1.3" fill="none" stroke-dasharray="0 0" style=""/></g><g class="divider" style=""><path d="M-61.9453125 21.5 C-28.233335242378544 21.500272110801426, 5.478642015242912 21.500544221602848, 61.9453125 21.501 M-61.9453125 21.5 C-15.689923329387547 21.500373356653668, 30.565465841224906 21.500746713307333, 61.9453125 21.501" stroke="#9370DB" stroke-width="1.3" fill="none" stroke-dasharray="0 0" style=""/></g></g><g class="node default " id="mermaid-10-classId-EpisodeTable-5" data-look="classic" transform="translate(715.3203125, 367.5)"><g class="basic label-container outer-path"><path d="M-60.6953125 -39.5 L60.6953125 -39.5 L60.6953125 39.5 L-60.6953125 39.5" stroke="none" stroke-width="0" fill="#ECECFF" style=""/><path d="M-60.6953125 -39.5 C-16.693470143355754 -39.5, 27.308372213288493 -39.5, 60.6953125 -39.5 M-60.6953125 -39.5 C-32.49874105189608 -39.5, -4.302169603792166 -39.5, 60.6953125 -39.5 M60.6953125 -39.5 C60.6953125 -21.418525159120414, 60.6953125 -3.337050318240827, 60.6953125 39.5 M60.6953125 -39.5 C60.6953125 -23.66339497020734, 60.6953125 -7.8267899404146775, 60.6953125 39.5 M60.6953125 39.5 C29.6985998660654 39.5, -1.298112767869199 39.5, -60.6953125 39.5 M60.6953125 39.5 C31.50236390242022 39.5, 2.309415304840442 39.5, -60.6953125 39.5 M-60.6953125 39.5 C-60.6953125 19.127660863779624, -60.6953125 -1.2446782724407512, -60.6953125 -39.5 M-60.6953125 39.5 C-60.6953125 17.737755433298215, -60.6953125 -4.02448913340357, -60.6953125 -39.5" stroke="#9370DB" stroke-width="1.3" fill="none" stroke-dasharray="0 0" style=""/></g><g class="annotation-group text" transform="translate(0, -19.5)"/><g class="label-group text" transform="translate(-48.6953125, -19.5)"><g class="label" style="font-weight: bolder" transform="translate(0,-9.5)"><g><rect class="background" style="stroke: none"/><text y="-10.1" style=""><tspan class="text-outer-tspan row" x="0" y="-0.1em" dy="1.1em" font-weight=""><tspan font-style="normal" class="text-inner-tspan" font-weight="">EpisodeTable</tspan></tspan></text></g></g></g><g class="members-group text" transform="translate(-48.6953125, 23.5)"/><g class="methods-group text" transform="translate(-48.6953125, 53.5)"/><g class="divider" style=""><path d="M-60.6953125 3.5 C-27.34498853446111 3.500274735581644, 6.005335431077782 3.5005494711632887, 60.6953125 3.501 M-60.6953125 3.5 C-14.355571962265024 3.5003817406866284, 31.98416857546995 3.5007634813732564, 60.6953125 3.501" stroke="#9370DB" stroke-width="1.3" fill="none" stroke-dasharray="0 0" style=""/></g><g class="divider" style=""><path d="M-60.6953125 21.5 C-19.177369212406674 21.50034201935518, 22.34057407518665 21.500684038710364, 60.6953125 21.501 M-60.6953125 21.5 C-17.75320235597767 21.500353751454398, 25.18890778804466 21.500707502908796, 60.6953125 21.501" stroke="#9370DB" stroke-width="1.3" fill="none" stroke-dasharray="0 0" style=""/></g></g><g class="node default " id="mermaid-10-classId-Stream-6" data-look="classic" transform="translate(566.0859375, 367.5)"><g class="basic label-container outer-path"><path d="M-38.5390625 -39.5 L38.5390625 -39.5 L38.5390625 39.5 L-38.5390625 39.5" stroke="none" stroke-width="0" fill="#ECECFF" style=""/><path d="M-38.5390625 -39.5 C-11.220871948070176 -39.5, 16.097318603859648 -39.5, 38.5390625 -39.5 M-38.5390625 -39.5 C-8.860796692003603 -39.5, 20.817469115992793 -39.5, 38.5390625 -39.5 M38.5390625 -39.5 C38.5390625 -19.825192517507215, 38.5390625 -0.15038503501443046, 38.5390625 39.5 M38.5390625 -39.5 C38.5390625 -20.173510996792338, 38.5390625 -0.8470219935846757, 38.5390625 39.5 M38.5390625 39.5 C8.68140538501035 39.5, -21.1762517299793 39.5, -38.5390625 39.5 M38.5390625 39.5 C21.883887001448517 39.5, 5.228711502897035 39.5, -38.5390625 39.5 M-38.5390625 39.5 C-38.5390625 19.191696772194003, -38.5390625 -1.1166064556119935, -38.5390625 -39.5 M-38.5390625 39.5 C-38.5390625 20.598449256069006, -38.5390625 1.696898512138013, -38.5390625 -39.5" stroke="#9370DB" stroke-width="1.3" fill="none" stroke-dasharray="0 0" style=""/></g><g class="annotation-group text" transform="translate(0, -19.5)"/><g class="label-group text" transform="translate(-26.5390625, -19.5)"><g class="label" style="font-weight: bolder" transform="translate(0,-9.5)"><g><rect class="background" style="stroke: none"/><text y="-10.1" style=""><tspan class="text-outer-tspan row" x="0" y="-0.1em" dy="1.1em" font-weight=""><tspan font-style="normal" class="text-inner-tspan" font-weight="">Stream</tspan></tspan></text></g></g></g><g class="members-group text" transform="translate(-26.5390625, 23.5)"/><g class="methods-group text" transform="translate(-26.5390625, 53.5)"/><g class="divider" style=""><path d="M-38.5390625 3.5 C-18.047398504098496 3.5002658557664175, 2.4442654918030087 3.500531711532835, 38.5390625 3.501 M-38.5390625 3.5 C-16.17140911028381 3.500290194570635, 6.196244279432378 3.5005803891412697, 38.5390625 3.501" stroke="#9370DB" stroke-width="1.3" fill="none" stroke-dasharray="0 0" style=""/></g><g class="divider" style=""><path d="M-38.5390625 21.5 C-7.752031199996239 21.500399426313237, 23.035000100007522 21.500798852626477, 38.5390625 21.501 M-38.5390625 21.5 C-12.617409300217481 21.500336303629595, 13.304243899565037 21.500672607259187, 38.5390625 21.501" stroke="#9370DB" stroke-width="1.3" fill="none" stroke-dasharray="0 0" style=""/></g></g><g class="node default " id="mermaid-10-classId-Summary-7" data-look="classic" transform="translate(872.76171875, 367.5)"><g class="basic label-container outer-path"><path d="M-46.74609375 -39.5 L46.74609375 -39.5 L46.74609375 39.5 L-46.74609375 39.5" stroke="none" stroke-width="0" fill="#ECECFF" style=""/><path d="M-46.74609375 -39.5 C-21.748803922724225 -39.5, 3.2484859045515506 -39.5, 46.74609375 -39.5 M-46.74609375 -39.5 C-24.951722826739857 -39.5, -3.1573519034797144 -39.5, 46.74609375 -39.5 M46.74609375 -39.5 C46.74609375 -21.840794314145544, 46.74609375 -4.181588628291088, 46.74609375 39.5 M46.74609375 -39.5 C46.74609375 -19.065649653004005, 46.74609375 1.3687006939919897, 46.74609375 39.5 M46.74609375 39.5 C27.398027022996622 39.5, 8.049960295993245 39.5, -46.74609375 39.5 M46.74609375 39.5 C19.282552024202378 39.5, -8.180989701595244 39.5, -46.74609375 39.5 M-46.74609375 39.5 C-46.74609375 15.09099176906729, -46.74609375 -9.318016461865419, -46.74609375 -39.5 M-46.74609375 39.5 C-46.74609375 22.16366578386722, -46.74609375 4.82733156773444, -46.74609375 -39.5" stroke="#9370DB" stroke-width="1.3" fill="none" stroke-dasharray="0 0" style=""/></g><g class="annotation-group text" transform="translate(0, -19.5)"/><g class="label-group text" transform="translate(-34.74609375, -19.5)"><g class="label" style="font-weight: bolder" transform="translate(0,-9.5)"><g><rect class="background" style="stroke: none"/><text y="-10.1" style=""><tspan class="text-outer-tspan row" x="0" y="-0.1em" dy="1.1em" font-weight=""><tspan font-style="normal" class="text-inner-tspan" font-weight="">Summary</tspan></tspan></text></g></g></g><g class="members-group text" transform="translate(-34.74609375, 23.5)"/><g class="methods-group text" transform="translate(-34.74609375, 53.5)"/><g class="divider" style=""><path d="M-46.74609375 3.5 C-19.5288352447927 3.5002911179985516, 7.688423260414602 3.5005822359971033, 46.74609375 3.501 M-46.74609375 3.5 C-23.178369205157274 3.500252082288104, 0.38935533968545144 3.5005041645762076, 46.74609375 3.501" stroke="#9370DB" stroke-width="1.3" fill="none" stroke-dasharray="0 0" style=""/></g><g class="divider" style=""><path d="M-46.74609375 21.5 C-17.89577610341805 21.500308585331226, 10.954541543163899 21.500617170662448, 46.74609375 21.501 M-46.74609375 21.5 C-10.04966909331334 21.50039250792647, 26.64675556337332 21.50078501585294, 46.74609375 21.501" stroke="#9370DB" stroke-width="1.3" fill="none" stroke-dasharray="0 0" style=""/></g></g><g class="node default " id="mermaid-10-classId-TrueState-8" data-look="classic" transform="translate(1018.1171875, 367.5)"><g class="basic label-container outer-path"><path d="M-48.609375 -39.5 L48.609375 -39.5 L48.609375 39.5 L-48.609375 39.5" stroke="none" stroke-width="0" fill="#ECECFF" style=""/><path d="M-48.609375 -39.5 C-11.067720429313603 -39.5, 26.473934141372794 -39.5, 48.609375 -39.5 M-48.609375 -39.5 C-24.610899433573444 -39.5, -0.6124238671468873 -39.5, 48.609375 -39.5 M48.609375 -39.5 C48.609375 -14.727555932765583, 48.609375 10.044888134468835, 48.609375 39.5 M48.609375 -39.5 C48.609375 -12.105944483695279, 48.609375 15.288111032609443, 48.609375 39.5 M48.609375 39.5 C15.564659189828149 39.5, -17.480056620343703 39.5, -48.609375 39.5 M48.609375 39.5 C28.290027698240245 39.5, 7.970680396480489 39.5, -48.609375 39.5 M-48.609375 39.5 C-48.609375 14.831865491812533, -48.609375 -9.836269016374935, -48.609375 -39.5 M-48.609375 39.5 C-48.609375 12.428381372750518, -48.609375 -14.643237254498963, -48.609375 -39.5" stroke="#9370DB" stroke-width="1.3" fill="none" stroke-dasharray="0 0" style=""/></g><g class="annotation-group text" transform="translate(0, -19.5)"/><g class="label-group text" transform="translate(-36.609375, -19.5)"><g class="label" style="font-weight: bolder" transform="translate(0,-9.5)"><g><rect class="background" style="stroke: none"/><text y="-10.1" style=""><tspan class="text-outer-tspan row" x="0" y="-0.1em" dy="1.1em" font-weight=""><tspan font-style="normal" class="text-inner-tspan" font-weight="">TrueState</tspan></tspan></text></g></g></g><g class="members-group text" transform="translate(-36.609375, 23.5)"/><g class="methods-group text" transform="translate(-36.609375, 53.5)"/><g class="divider" style=""><path d="M-48.609375 3.5 C-25.677673643061777 3.500235877352434, -2.7459722861235534 3.500471754704868, 48.609375 3.501 M-48.609375 3.5 C-17.327066812812795 3.5003217723760818, 13.95524137437441 3.500643544752163, 48.609375 3.501" stroke="#9370DB" stroke-width="1.3" fill="none" stroke-dasharray="0 0" style=""/></g><g class="divider" style=""><path d="M-48.609375 21.5 C-11.930919035397508 21.500377277592694, 24.747536929204983 21.500754555185388, 48.609375 21.501 M-48.609375 21.5 C-24.406374985838728 21.50024895403422, -0.2033749716774551 21.500497908068436, 48.609375 21.501" stroke="#9370DB" stroke-width="1.3" fill="none" stroke-dasharray="0 0" style=""/></g></g></g></g></g><defs><filter id="mermaid-10-drop-shadow" height="130%" width="130%"><feDropShadow dx="4" dy="4" stdDeviation="0" flood-opacity="0.06" flood-color="#000000"/></filter></defs><defs><filter id="mermaid-10-drop-shadow-small" height="150%" width="150%"><feDropShadow dx="2" dy="2" stdDeviation="0" flood-opacity="0.06" flood-color="#000000"/></filter></defs></svg>